<svg width="34" height="35" viewBox="0 0 34 35" fill="none" xmlns="http://www.w3.org/2000/svg">
<path d="M13.8484 5.30303H20.2121C20.2121 4.45916 19.8768 3.64985 19.2801 3.05315C18.6834 2.45644 17.8741 2.12121 17.0302 2.12121C16.1864 2.12121 15.3771 2.45644 14.7804 3.05315C14.1837 3.64985 13.8484 4.45916 13.8484 5.30303ZM11.7272 5.30303C11.7272 3.89658 12.2859 2.54773 13.2804 1.55322C14.2749 0.55871 15.6238 0 17.0302 0C18.4367 0 19.7855 0.55871 20.7801 1.55322C21.7746 2.54773 22.3333 3.89658 22.3333 5.30303H32.9393C33.2206 5.30303 33.4904 5.41477 33.6893 5.61367C33.8882 5.81258 33.9999 6.08235 33.9999 6.36364C33.9999 6.64493 33.8882 6.9147 33.6893 7.1136C33.4904 7.3125 33.2206 7.42424 32.9393 7.42424H30.7036L28.1709 29.3661C27.9918 30.9171 27.2488 32.3481 26.0833 33.387C24.9177 34.4258 23.4109 34.9999 21.8496 35H12.2109C10.6495 34.9999 9.14276 34.4258 7.9772 33.387C6.81165 32.3481 6.06867 30.9171 5.88964 29.3661L3.35691 7.42424H1.12115C0.839863 7.42424 0.570094 7.3125 0.371191 7.1136C0.172289 6.9147 0.0605469 6.64493 0.0605469 6.36364C0.0605469 6.08235 0.172289 5.81258 0.371191 5.61367C0.570094 5.41477 0.839863 5.30303 1.12115 5.30303H11.7272ZM14.909 13.7879C14.909 13.5066 14.7973 13.2368 14.5984 13.0379C14.3995 12.839 14.1297 12.7273 13.8484 12.7273C13.5671 12.7273 13.2974 12.839 13.0985 13.0379C12.8996 13.2368 12.7878 13.5066 12.7878 13.7879V26.5152C12.7878 26.7964 12.8996 27.0662 13.0985 27.2651C13.2974 27.464 13.5671 27.5758 13.8484 27.5758C14.1297 27.5758 14.3995 27.464 14.5984 27.2651C14.7973 27.0662 14.909 26.7964 14.909 26.5152V13.7879ZM20.2121 12.7273C19.9308 12.7273 19.661 12.839 19.4621 13.0379C19.2632 13.2368 19.1515 13.5066 19.1515 13.7879V26.5152C19.1515 26.7964 19.2632 27.0662 19.4621 27.2651C19.661 27.464 19.9308 27.5758 20.2121 27.5758C20.4934 27.5758 20.7631 27.464 20.962 27.2651C21.1609 27.0662 21.2727 26.7964 21.2727 26.5152V13.7879C21.2727 13.5066 21.1609 13.2368 20.962 13.0379C20.7631 12.839 20.4934 12.7273 20.2121 12.7273Z" fill="#B50000" fill-opacity="0.75"/>
</svg>
