<svg width="32" height="37" viewBox="0 0 32 37" fill="none" xmlns="http://www.w3.org/2000/svg">
<path d="M24.942 18.5993L14.8977 28.6436C14.3126 29.2289 13.8972 29.962 13.6957 30.7648L12.9159 33.88C12.839 34.1898 12.8435 34.5142 12.9291 34.8218C13.0146 35.1293 13.1782 35.4095 13.4041 35.6352C13.6299 35.8608 13.9103 36.0242 14.2179 36.1094C14.5255 36.1947 14.85 36.1989 15.1597 36.1217L18.2749 35.344C19.0777 35.1425 19.8108 34.7271 20.3961 34.142L30.4404 24.0977C31.1602 23.3663 31.5618 22.3801 31.5577 21.354C31.5535 20.3278 31.1439 19.3449 30.4182 18.6195C29.6924 17.894 28.7094 17.4848 27.6832 17.481C26.6571 17.4772 25.671 17.8792 24.94 18.5993M6.62103 1.8629C6.62103 1.58714 6.51148 1.32266 6.31649 1.12767C6.12149 0.932669 5.85701 0.82312 5.58125 0.82312C5.30548 0.82312 5.04101 0.932669 4.84601 1.12767C4.65101 1.32266 4.54146 1.58714 4.54146 1.8629V2.90269H3.50168C2.67437 2.90269 1.88095 3.23133 1.29596 3.81633C0.710969 4.40132 0.382324 5.19474 0.382324 6.02204V30.9769C0.382324 31.8042 0.710969 32.5976 1.29596 33.1826C1.88095 33.7676 2.67437 34.0962 3.50168 34.0962H10.7864C10.8003 33.8592 10.8377 33.6186 10.8987 33.3746L11.6785 30.2594C11.9706 29.0909 12.5744 28.0236 13.4254 27.1713L23.4697 17.1269C24.0071 16.5918 24.6407 16.1628 25.3372 15.8626V6.02204C25.3372 5.19474 25.0085 4.40132 24.4235 3.81633C23.8385 3.23133 23.0451 2.90269 22.2178 2.90269H21.178V1.8629C21.178 1.58714 21.0685 1.32266 20.8735 1.12767C20.6785 0.932669 20.414 0.82312 20.1382 0.82312C19.8625 0.82312 19.598 0.932669 19.403 1.12767C19.208 1.32266 19.0984 1.58714 19.0984 1.8629V2.90269H13.8995V1.8629C13.8995 1.58714 13.79 1.32266 13.595 1.12767C13.4 0.932669 13.1355 0.82312 12.8597 0.82312C12.584 0.82312 12.3195 0.932669 12.1245 1.12767C11.9295 1.32266 11.82 1.58714 11.82 1.8629V2.90269H6.62103V1.8629ZM7.66082 11.221H18.0587C18.3344 11.221 18.5989 11.3305 18.7939 11.5255C18.9889 11.7205 19.0984 11.985 19.0984 12.2608C19.0984 12.5365 18.9889 12.801 18.7939 12.996C18.5989 13.191 18.3344 13.3005 18.0587 13.3005H7.66082C7.38505 13.3005 7.12057 13.191 6.92558 12.996C6.73058 12.801 6.62103 12.5365 6.62103 12.2608C6.62103 11.985 6.73058 11.7205 6.92558 11.5255C7.12057 11.3305 7.38505 11.221 7.66082 11.221ZM19.0984 18.4995C19.0984 18.7752 18.9889 19.0397 18.7939 19.2347C18.5989 19.4297 18.3344 19.5392 18.0587 19.5392H7.66082C7.38505 19.5392 7.12057 19.4297 6.92558 19.2347C6.73058 19.0397 6.62103 18.7752 6.62103 18.4995C6.62103 18.2237 6.73058 17.9592 6.92558 17.7642C7.12057 17.5692 7.38505 17.4597 7.66082 17.4597H18.0587C18.3344 17.4597 18.5989 17.5692 18.7939 17.7642C18.9889 17.9592 19.0984 18.2237 19.0984 18.4995ZM7.66082 23.6984H11.82C12.0957 23.6984 12.3602 23.8079 12.5552 24.0029C12.7502 24.1979 12.8597 24.4624 12.8597 24.7382C12.8597 25.0139 12.7502 25.2784 12.5552 25.4734C12.3602 25.6684 12.0957 25.7779 11.82 25.7779H7.66082C7.38505 25.7779 7.12057 25.6684 6.92558 25.4734C6.73058 25.2784 6.62103 25.0139 6.62103 24.7382C6.62103 24.4624 6.73058 24.1979 6.92558 24.0029C7.12057 23.8079 7.38505 23.6984 7.66082 23.6984Z" fill="#004AAD"/>
</svg>
